<svg viewBox="0 0 601 601" fill="none" xmlns="http://www.w3.org/2000/svg">
<path fill-rule="evenodd" clip-rule="evenodd" d="M515.376 491.274C516.784 492.087 518.571 491.799 519.638 490.572C563.91 439.656 590.713 373.146 590.713 300.376C590.713 140.213 460.876 10.376 300.713 10.376C140.55 10.376 10.713 140.213 10.713 300.376C10.713 372.863 37.3081 439.139 81.273 489.978C82.3385 491.21 84.1295 491.501 85.5403 490.687L237.155 403.152C245.624 398.262 250.842 389.225 250.842 379.445V282.634C250.842 276.965 255.438 272.369 261.108 272.369H338.349C344.018 272.369 348.614 276.965 348.614 282.634V379.189C348.614 388.969 353.832 398.006 362.301 402.896L515.376 491.274ZM353.219 174.71C353.219 205.433 328.313 230.339 297.59 230.339C266.867 230.339 241.961 205.433 241.961 174.71C241.961 143.987 266.867 119.081 297.59 119.081C328.313 119.081 353.219 143.987 353.219 174.71Z" fill="#3F75FF"/>
<path d="M429.186 560.438C431.605 559.24 431.681 555.85 429.344 554.501L313.637 487.697C305.167 482.807 294.732 482.807 286.262 487.697L171.262 554.093C168.929 555.44 168.999 558.822 171.41 560.025C210.339 579.449 254.25 590.376 300.713 590.376C346.846 590.376 390.463 579.604 429.186 560.438Z" fill="#3F75FF"/>
</svg>
